<svg xmlns="http://www.w3.org/2000/svg" viewBox="0 0 62.93 54.47"><defs><style>.cls-1,.cls-2,.cls-3{fill:none;stroke-miterlimit:10;}.cls-1,.cls-3{stroke:#000;}.cls-2{stroke:#fff;}.cls-2,.cls-3{stroke-width:2px;}</style></defs><title>rh-logo-blkwht_1</title><g id="Layer_2" data-name="Layer 2"><g id="Layer_1-2" data-name="Layer 1"><path class="cls-1" d="M20,17.35c1.19-4.1,4.21-7.57,8.57-10,8-4.41,16.64-3.07,22.32,7.28L61.58,34.11l-9.84,5.41L41.89,21.6c-3-5.49-6.93-6.63-11.28-4.24C25.87,20,24.06,24.74,27.5,31l9.22,16.78-9.84,5.41"/><path class="cls-2" d="M50.89,14.61,61.57,34l-9.84,5.41L41.88,21.53C38.86,16,35,14.94,30.6,17.3c-4.69,2.52-6.52,7.33-3.12,13.62l9.23,16.79-9.85,5.41L1.36,6.71l9.91-5.36,8.77,16c1.15-4.19,4.17-7.66,8.52-10C36.58,2.92,45.2,4.26,50.89,14.61Z"/><path class="cls-3" d="M33.88,15.52c4,3.38-10.91,7.8-6.14,16.1l8.81,16-9.68,5.27L8.22,19l9.72-5.34,2.68,4.73C20.47,13,28.24,4.87,31.47,8.05"/><path d="M34,16.21a.5.5,0,0,0,0-1,.5.5,0,0,0,0,1Z"/><path d="M33.75,15.92a.5.5,0,0,0,0-1,.5.5,0,0,0,0,1Z"/><path d="M33.76,15.9a.5.5,0,0,0,0-1,.5.5,0,0,0,0,1Z"/><path d="M33.7,15.75a.5.5,0,0,0,0-1,.5.5,0,0,0,0,1Z"/><path d="M33.87,16a.5.5,0,0,0,0-1,.5.5,0,0,0,0,1Z"/><path d="M33.79,15.9a.5.5,0,0,0,0-1,.5.5,0,0,0,0,1Z"/><path d="M33.83,15.86a.5.5,0,0,0,0-1,.5.5,0,0,0,0,1Z"/><path d="M33.87,15.93a.5.5,0,0,0,0-1,.5.5,0,0,0,0,1Z"/><path d="M33.77,15.8a.5.5,0,0,0,0-1,.5.5,0,0,0,0,1Z"/><path d="M34,16a.5.5,0,0,0,0-1,.5.5,0,0,0,0,1Z"/><path d="M34.11,16.2a.5.5,0,0,0,0-1,.5.5,0,0,0,0,1Z"/><path d="M34.09,16.13a.5.5,0,0,0,0-1,.5.5,0,0,0,0,1Z"/><path d="M34.14,16.25a.5.5,0,0,0,0-1,.5.5,0,0,0,0,1Z"/><path d="M34.15,16.23a.5.5,0,0,0,0-1,.5.5,0,0,0,0,1Z"/><path d="M33.91,16.41a1,1,0,0,0,0-2,1,1,0,0,0,0,2Z"/></g></g></svg>