<svg xmlns="http://www.w3.org/2000/svg" viewBox="0 0 61.58 53.12"><defs><style>.cls-1{fill:none;stroke:#000;stroke-miterlimit:10;}</style></defs><title>rh-logo-blk</title><g id="Layer_2" data-name="Layer 2"><g id="Layer_1-2" data-name="Layer 1"><path class="cls-1" d="M19.32,16.68c1.2-4.11,4.22-7.58,8.58-10,8-4.4,16.64-3.06,22.32,7.29L60.9,33.43l-9.84,5.41L41.21,20.92c-3-5.49-6.93-6.63-11.28-4.23-4.74,2.6-6.55,7.37-3.12,13.62L36,47.1l-9.85,5.41"/><path class="cls-1" d="M50.21,13.93,60.89,33.37l-9.84,5.41L41.2,20.86c-3-5.5-6.91-6.59-11.29-4.24C25.23,19.14,23.4,24,26.8,30.24L36,47l-9.85,5.41L.68,6,10.59.68l8.77,16c1.15-4.18,4.17-7.65,8.52-10C35.9,2.24,44.52,3.58,50.21,13.93Z"/><path class="cls-1" d="M33.2,14.85c4,3.37-10.91,7.8-6.14,16.09l8.81,16-9.68,5.27L7.54,18.29,17.26,13l2.68,4.73C19.79,12.34,27.56,4.2,30.79,7.37"/><path d="M33.27,15.53a.5.5,0,0,0,0-1,.5.5,0,0,0,0,1Z"/><path d="M33.07,15.24a.5.5,0,0,0,0-1,.5.5,0,0,0,0,1Z"/><path d="M33.08,15.23a.5.5,0,0,0,0-1,.5.5,0,0,0,0,1Z"/><path d="M33,15.07a.5.5,0,0,0,0-1,.5.5,0,0,0,0,1Z"/><path d="M33.19,15.28a.5.5,0,0,0,0-1,.5.5,0,0,0,0,1Z"/><path d="M33.11,15.22a.5.5,0,0,0,0-1,.5.5,0,0,0,0,1Z"/><path d="M33.15,15.19a.5.5,0,0,0,0-1,.5.5,0,0,0,0,1Z"/><path d="M33.19,15.26a.5.5,0,0,0,0-1,.5.5,0,0,0,0,1Z"/><path d="M33.09,15.13a.5.5,0,0,0,0-1,.5.5,0,0,0,0,1Z"/><path d="M33.33,15.36a.5.5,0,0,0,0-1,.5.5,0,0,0,0,1Z"/><path d="M33.42,15.53a.5.5,0,0,0,0-1,.5.5,0,0,0,0,1Z"/><path d="M33.41,15.46a.5.5,0,0,0,0-1,.5.5,0,0,0,0,1Z"/><path d="M33.46,15.57a.5.5,0,0,0,0-1,.5.5,0,0,0,0,1Z"/><path d="M33.47,15.56a.5.5,0,0,0,0-1,.5.5,0,0,0,0,1Z"/><path d="M33.23,15.24a.5.5,0,0,0,0-1,.5.5,0,0,0,0,1Z"/></g></g></svg>